<?xml version="1.0" encoding="UTF-8"?><svg id="uuid-483e9850-78cb-4160-bef1-69805a0f9d4a" xmlns="http://www.w3.org/2000/svg" viewBox="0 0 97.24 112.58"><g id="uuid-3c40308e-2c4a-4963-bc3d-f10f0b664ea7"><polygon points="68.53 41.76 97.24 25.14 53.66 0 53.8 33.27 68.53 41.76" fill="#4798e2" stroke-width="0"/><polygon points="46.42 33.24 46.28 .39 3.23 25.72 31.68 41.92 46.42 33.24" fill="#4798e2" stroke-width="0"/><polygon points="0 32.37 .21 81.3 27.85 65.3 27.78 48.13 0 32.37" fill="#4798e2" stroke-width="0"/><polygon points="4.03 87.62 46.76 112.23 46.63 80.65 31.31 71.83 4.03 87.62" fill="#4798e2" stroke-width="0"/><polygon points="97.2 87.52 54.14 112.58 54.01 80.58 69.29 71.69 97.2 87.52" fill="#4798e2" stroke-width="0"/><polygon points="64.93 43.84 58.58 47.51 53.85 44.78 53.82 37.44 64.93 43.84" fill="#4798e2" stroke-width="0"/><polygon points="42.05 47.75 46.48 45.14 46.44 37.68 35.58 44.07 42.05 47.75" fill="#4798e2" stroke-width="0"/><polygon points="38.52 54.23 31.74 50.38 31.8 63.02 38.54 59.11 38.52 54.23" fill="#4798e2" stroke-width="0"/><polygon points="42.1 65.58 46.57 68.16 46.61 76.21 35.21 69.57 42.1 65.58" fill="#4798e2" stroke-width="0"/><polygon points="58.73 65.69 65.65 69.62 53.99 76.41 53.95 68.47 58.73 65.69" fill="#4798e2" stroke-width="0"/></g></svg>