<?xml version="1.0" encoding="UTF-8"?><svg id="uuid-93fbc62b-db42-4f75-a847-42930c8380e5" xmlns="http://www.w3.org/2000/svg" viewBox="0 0 248.75 105.9"><g id="uuid-c6c5ec19-848b-4517-b7d2-e9c104c4186a"><path d="M39.55,33.22c0,1.49-.34,3.09-1.03,4.82-.69,1.73-1.77,3.43-3.24,5.09-1.47,1.67-3.36,3.02-5.65,4.06s-4.96,1.56-8.01,1.56c-2.31,0-4.41-.23-6.3-.7-1.89-.47-3.61-1.19-5.15-2.18-1.54-.99-2.96-2.29-4.26-3.9-1.16-1.46-2.14-3.1-2.96-4.92-.82-1.81-1.43-3.75-1.84-5.81-.41-2.06-.61-4.24-.61-6.56,0-3.76.51-7.12,1.54-10.09,1.03-2.97,2.49-5.51,4.41-7.62,1.91-2.11,4.15-3.72,6.72-4.82,2.57-1.1,5.31-1.66,8.22-1.66,3.54,0,6.7.75,9.47,2.26,2.77,1.51,4.89,3.37,6.36,5.59,1.47,2.22,2.21,4.31,2.21,6.29,0,1.08-.36,2.04-1.08,2.86-.72.83-1.58,1.24-2.6,1.24-1.14,0-1.99-.29-2.55-.86-.57-.57-1.2-1.56-1.9-2.96-1.16-2.31-2.51-4.04-4.08-5.19s-3.49-1.72-5.78-1.72c-3.65,0-6.55,1.48-8.71,4.42-2.16,2.95-3.24,7.14-3.24,12.57,0,3.63.48,6.65,1.43,9.06.96,2.41,2.31,4.21,4.06,5.4,1.75,1.19,3.81,1.78,6.16,1.78,2.55,0,4.71-.67,6.47-2.02,1.76-1.35,3.09-3.33,3.99-5.94.38-1.23.85-2.23,1.4-3.01.56-.77,1.45-1.16,2.69-1.16,1.06,0,1.96.39,2.72,1.18s1.14,1.76,1.14,2.93Z" fill="#4798e2" stroke="#4798e2" stroke-miterlimit="10"/><path d="M66.8.5c4.54,0,8.44.98,11.7,2.94,3.26,1.96,5.72,4.75,7.4,8.37,1.67,3.62,2.51,7.87,2.51,12.75,0,3.61-.46,6.89-1.37,9.84-.92,2.95-2.29,5.51-4.12,7.67-1.83,2.16-4.08,3.82-6.75,4.97-2.67,1.15-5.73,1.72-9.17,1.72s-6.49-.59-9.2-1.77c-2.71-1.18-4.97-2.84-6.78-4.98-1.81-2.14-3.18-4.72-4.11-7.74-.93-3.01-1.39-6.27-1.39-9.77s.48-6.88,1.45-9.87c.97-2.99,2.36-5.54,4.2-7.64,1.83-2.1,4.06-3.71,6.69-4.82,2.63-1.11,5.62-1.67,8.96-1.67ZM79.41,24.5c0-3.42-.52-6.38-1.55-8.88-1.04-2.5-2.51-4.4-4.44-5.68-1.92-1.28-4.13-1.93-6.62-1.93-1.77,0-3.41.36-4.91,1.07-1.5.71-2.8,1.75-3.88,3.1-1.09,1.36-1.94,3.09-2.57,5.2-.63,2.11-.94,4.48-.94,7.11s.31,5.05.94,7.19c.63,2.14,1.51,3.92,2.66,5.33,1.14,1.41,2.46,2.47,3.94,3.17,1.48.7,3.11,1.05,4.89,1.05,2.27,0,4.36-.6,6.26-1.81,1.9-1.21,3.42-3.08,4.54-5.6,1.12-2.53,1.69-5.63,1.69-9.33Z" fill="#4798e2" stroke="#4798e2" stroke-miterlimit="10"/><path d="M104.69,6.23v33.97h17.99c1.43,0,2.53.37,3.3,1.11.77.74,1.15,1.68,1.15,2.8s-.38,2.07-1.14,2.79c-.76.71-1.86,1.07-3.32,1.07h-21.42c-1.93,0-3.32-.46-4.17-1.37-.85-.91-1.27-2.39-1.27-4.42V6.23c0-1.91.4-3.34,1.21-4.3s1.87-1.43,3.18-1.43,2.42.47,3.24,1.42c.83.94,1.24,2.38,1.24,4.31Z" fill="#4798e2" stroke="#4798e2" stroke-miterlimit="10"/><path d="M50.87,90.57l-12.87-27.08c-1.35-2.83-4.53-4.11-7.33-2.93h0c-3.18,1.34-4.57,5.28-2.98,8.48l16.01,32.21c1.29,2.59,3.84,4.22,6.63,4.22h0c2.69,0,5.17-1.52,6.5-3.98l15.21-28.11c.38-.71,1.1-1.15,1.88-1.15l23.19.1c2.74.01,4.97-2.32,4.97-5.21h0c0-2.88-2.22-5.21-4.95-5.21h-32.27c-.89,0-1.69.54-2.06,1.39l-11.92,27.26Z" fill="#4798e2" stroke-width="0"/><rect x="77.02" y="79.11" width="23.97" height="9.17" rx="4.58" ry="4.58" fill="#4798e2" stroke-width="0"/><rect x="77.02" y="95.15" width="23.97" height="9.17" rx="4.58" ry="4.58" fill="#4798e2" stroke-width="0"/><path d="M179.13,37.82h-33.73V6.42c0-3.47-2.36-6.28-5.27-6.28s-5.27,2.81-5.27,6.28v39.11c0,1.29.88,2.33,1.96,2.33h42.31c2.33,0,4.22-2.25,4.22-5.02s-1.89-5.02-4.22-5.02Z" fill="#4798e2" stroke-width="0"/><rect x="161.15" y="18.66" width="20.26" height="10.62" rx="5.31" ry="5.31" fill="#4798e2" stroke-width="0"/><path d="M218.12,40.33s2.19,7.53-13.13,7.53-19.7-10.05-19.7-22.6S187.48.14,207.17.14h36.11c3.02,0,5.47,2.81,5.47,6.28h0c0,3.47-2.45,6.28-5.47,6.28h-5.47v29.01c0,3.4-2.4,6.15-5.36,6.15h0c-2.94,0-5.34-2.72-5.36-6.1l-.22-29.06h-21.93c-2.04,0-4.06.71-5.62,2.21-2.16,2.08-4.29,5.95-3.09,12.86,2.19,12.56,15.32,7.53,15.32,7.53,0,0,6.57-2.51,6.57,5.02Z" fill="#4798e2" stroke-width="0"/><rect x="161.15" y="2.28" width="22.02" height="11.39" rx="5.69" ry="5.69" fill="#4798e2" stroke-width="0"/><path d="M121.2,86.1h-3.03v13.95c0,1.84-.4,3.19-1.2,4.06s-1.84,1.3-3.12,1.3c-1.38,0-2.45-.45-3.21-1.36-.76-.91-1.14-2.24-1.14-4v-33.4c0-1.9.42-3.27,1.25-4.12.84-.85,2.19-1.27,4.05-1.27h14.08c1.94,0,3.6.08,4.98.25,1.38.17,2.62.51,3.73,1.02,1.34.57,2.53,1.39,3.56,2.46s1.81,2.31,2.35,3.72c.53,1.41.8,2.91.8,4.49,0,3.24-.9,5.82-2.7,7.76-1.8,1.94-4.52,3.31-8.17,4.12,1.53.83,3,2.05,4.4,3.67,1.4,1.62,2.65,3.34,3.75,5.17,1.1,1.83,1.95,3.47,2.56,4.94.61,1.47.92,2.48.92,3.04s-.18,1.14-.54,1.7c-.36.56-.85,1.01-1.47,1.33-.62.33-1.34.49-2.16.49-.97,0-1.79-.23-2.45-.7-.66-.46-1.23-1.05-1.71-1.76-.48-.71-1.12-1.76-1.94-3.14l-3.47-5.86c-1.24-2.15-2.36-3.79-3.34-4.92-.98-1.12-1.98-1.89-2.99-2.31-1.01-.41-2.28-.62-3.82-.62ZM126.15,67.86h-7.99v11.93h7.75c2.08,0,3.83-.18,5.25-.55,1.42-.37,2.5-.99,3.25-1.87.75-.88,1.12-2.09,1.12-3.63,0-1.2-.3-2.27-.9-3.18s-1.44-1.6-2.51-2.06c-1.01-.43-3-.65-5.98-.65Z" fill="#4798e2" stroke="#4798e2" stroke-miterlimit="10"/><path d="M184.97,91.63c0,2.63-.67,4.99-2,7.08-1.33,2.09-3.28,3.73-5.84,4.92-2.56,1.18-5.61,1.78-9.12,1.78-4.22,0-7.69-.81-10.43-2.43-1.94-1.16-3.52-2.72-4.74-4.66-1.21-1.94-1.82-3.83-1.82-5.67,0-1.07.36-1.98,1.09-2.74.73-.76,1.66-1.14,2.78-1.14.91,0,1.69.3,2.32.89s1.17,1.47,1.62,2.64c.54,1.38,1.13,2.54,1.76,3.46.63.93,1.52,1.69,2.67,2.29,1.15.6,2.65.9,4.52.9,2.57,0,4.65-.61,6.25-1.82,1.6-1.21,2.4-2.73,2.4-4.55,0-1.44-.43-2.61-1.3-3.51s-1.98-1.58-3.35-2.06c-1.37-.47-3.2-.98-5.49-1.51-3.07-.73-5.64-1.58-7.71-2.56-2.07-.98-3.71-2.31-4.93-4-1.22-1.69-1.82-3.79-1.82-6.29s.64-4.51,1.92-6.37c1.28-1.86,3.14-3.28,5.57-4.28,2.43-1,5.29-1.5,8.57-1.5,2.62,0,4.89.33,6.8.99,1.91.66,3.5,1.54,4.77,2.64,1.26,1.1,2.19,2.25,2.77,3.45.58,1.2.87,2.38.87,3.52,0,1.05-.36,1.99-1.09,2.83-.73.84-1.64,1.26-2.72,1.26-.99,0-1.74-.25-2.26-.75-.52-.5-1.07-1.33-1.68-2.47-.78-1.64-1.71-2.92-2.8-3.83s-2.84-1.38-5.25-1.38c-2.23,0-4.04.5-5.41,1.5-1.37,1-2.06,2.2-2.06,3.6,0,.87.23,1.62.7,2.25.47.63,1.11,1.17,1.92,1.63.82.45,1.64.81,2.48,1.07s2.21.63,4.14,1.12c2.41.57,4.59,1.2,6.54,1.9,1.95.69,3.61,1.53,4.98,2.52,1.37.99,2.44,2.24,3.21,3.75.77,1.51,1.15,3.36,1.15,5.55Z" fill="#4798e2" stroke="#4798e2" stroke-miterlimit="10"/><path d="M220.47,68.03h-19.5v10.66h17.95c1.32,0,2.31.3,2.96.9.65.6.98,1.4.98,2.38s-.32,1.79-.96,2.41c-.64.62-1.63.93-2.97.93h-17.95v12.35h20.17c1.36,0,2.38.32,3.07.96.69.64,1.03,1.5,1.03,2.56s-.34,1.86-1.03,2.5c-.69.64-1.72.96-3.07.96h-23.52c-1.88,0-3.24-.42-4.07-1.27-.83-.85-1.24-2.22-1.24-4.12v-32.63c0-1.26.18-2.3.55-3.09.37-.8.95-1.38,1.73-1.75.79-.37,1.79-.55,3.02-.55h22.85c1.38,0,2.4.31,3.07.93.67.62,1.01,1.44,1.01,2.44s-.34,1.85-1.01,2.47c-.67.62-1.7.93-3.07.93Z" fill="#4798e2" stroke="#4798e2" stroke-miterlimit="10"/></g></svg>